<svg width="20" height="20" viewBox="0 0 20 20" fill="none" xmlns="http://www.w3.org/2000/svg">
<g opacity="0.7" clip-path="url(#clip0_4486_30590)">
<path d="M16.8385 12.6765V5.51083C16.8385 5.28829 16.6564 5.13454 16.4339 5.13454H14.868C14.6455 5.13454 14.4513 5.28829 14.4513 5.51083V11.9765C14.1923 11.9846 13.9334 12.017 13.6825 12.0777V7.6229C13.6825 7.40037 13.4923 7.23852 13.2698 7.23852H11.7039C11.4814 7.23852 11.2953 7.39632 11.2953 7.6229V13.6638C10.8138 14.3395 10.5548 15.1527 10.5589 15.9862C10.5589 18.2035 12.3554 20 14.5686 20C16.7859 20 18.5824 18.2035 18.5824 15.9903C18.5824 14.6632 17.9309 13.425 16.8385 12.6765ZM15.2605 5.94376H16.0292V12.2476C15.7824 12.1505 15.5235 12.0777 15.2605 12.0372V5.94376ZM12.1045 8.04775H12.8733V12.3569C12.6022 12.4823 12.3432 12.6361 12.1045 12.8181V8.04775ZM17.3281 17.6168C16.7495 18.592 15.7015 19.1867 14.5726 19.1867C12.8045 19.1867 11.3722 17.7504 11.3722 15.9862C11.3722 14.6915 12.1531 13.5222 13.3507 13.0285C13.3993 13.0204 13.4438 13.0002 13.4842 12.9759C13.8322 12.8465 14.2044 12.7817 14.5767 12.7817C14.6617 12.7817 14.7426 12.7858 14.8275 12.7939H14.8316C15.3171 12.8303 15.7905 12.98 16.2073 13.2308C17.7286 14.1331 18.2303 16.0955 17.3281 17.6168Z" fill="black"/>
<path d="M6.92548 10.4754H5.34748C5.12495 10.4754 4.94287 10.6575 4.94287 10.88V17.2324C4.94287 17.455 5.12495 17.6371 5.34748 17.6371H6.92548C7.14801 17.6371 7.33009 17.455 7.33009 17.2324V10.88C7.33009 10.6575 7.14801 10.4754 6.92548 10.4754ZM6.52086 16.8683H5.7521V11.2846H6.52086V16.8683Z" fill="black"/>
<path d="M10.1218 9.54481H8.54377C8.32124 9.54481 8.13916 9.72688 8.13916 9.94942V17.2729C8.13916 17.4954 8.32124 17.6775 8.54377 17.6775H10.1218C10.3443 17.6775 10.5264 17.4954 10.5264 17.2729V9.94942C10.5264 9.72688 10.3443 9.54481 10.1218 9.54481ZM9.71715 16.8683H8.94839V10.354H9.71715V16.8683Z" fill="black"/>
<path d="M3.72918 13.9551H2.15119C1.92866 13.9551 1.74658 14.1372 1.74658 14.3597V17.2325C1.74658 17.455 1.92866 17.6371 2.15119 17.6371H3.72918C3.95172 17.6371 4.1338 17.455 4.1338 17.2325V14.3597C4.1338 14.1372 3.95172 13.9551 3.72918 13.9551ZM3.32457 16.8683H2.55581V14.7643H3.32457V16.8683Z" fill="black"/>
<path d="M16.7776 0L14.01 0.00404613C13.7875 0 13.6054 0.182076 13.6014 0.404613C13.5973 0.627149 13.7794 0.809225 14.0019 0.813271C14.006 0.813271 14.006 0.813271 14.01 0.813271L15.8025 0.809225L11.4124 5.18309L9.87894 3.66174C9.80207 3.58891 9.69687 3.5525 9.59167 3.55654C9.48647 3.5525 9.38127 3.58891 9.30439 3.66174L1.53583 11.4303C1.37803 11.5881 1.37803 11.843 1.53583 11.9968C1.61271 12.0736 1.71386 12.1141 1.8231 12.1141C1.93235 12.1141 2.0335 12.0736 2.11038 11.9968L9.59571 4.51143L11.1292 6.05705C11.202 6.13797 11.3072 6.18248 11.4165 6.18653C11.5257 6.18248 11.6269 6.13393 11.7037 6.05705L16.373 1.38377L16.3689 3.1843C16.3689 3.41088 16.547 3.59296 16.7735 3.60105C17.0001 3.59701 17.1782 3.41088 17.1782 3.1843L17.1822 0.408659C17.1822 0.186122 17.0001 0 16.7776 0Z" fill="black"/>
<path d="M15.7631 16.0685C15.7308 16.1469 15.6754 16.2577 15.5969 16.4008C15.5738 16.4377 15.5323 16.5023 15.4723 16.5946L14.8492 16.1031C15.1308 15.9185 15.2715 15.7154 15.2715 15.4938C15.2715 15.3462 15.2115 15.2723 15.0915 15.2723C14.9854 15.2723 14.8584 15.3092 14.7108 15.3831L14.3992 15.5354L14.3438 14.7946C14.4731 14.7392 14.6392 14.7115 14.8423 14.7115H14.9461C14.9877 14.7208 15.0131 14.7254 15.0223 14.7254C15.3131 14.7669 15.5369 14.9354 15.6938 15.2308C15.7631 15.3646 15.7977 15.5654 15.7977 15.8331C15.7977 15.9346 15.7861 16.0131 15.7631 16.0685ZM14.8284 14.3169C14.87 14.46 14.8908 14.61 14.8908 14.7669C14.8908 15.0069 14.7708 15.2654 14.5308 15.5423C14.3877 15.7085 14.2677 15.8238 14.1708 15.8885C14.1892 16.0038 14.2723 16.1377 14.42 16.29L15.1884 17.2108L14.9254 17.5154L14.06 16.5392C13.7831 16.23 13.6215 16.0454 13.5754 15.9854C13.3723 15.7177 13.2708 15.5077 13.2708 15.3554C13.2708 15.3323 13.2777 15.2931 13.2915 15.2377C13.3654 15.0346 13.4969 14.9331 13.6861 14.9331C13.7323 14.9377 13.7715 14.94 13.8038 14.94H14.0808C14.1777 14.8662 14.2261 14.7808 14.2261 14.6838C14.2261 14.5038 14.1915 14.3815 14.1223 14.3169H12.9454V13.7077H16.1231V14.3169H14.8284Z" fill="black"/>
</g>
<defs>
<clipPath id="clip0_4486_30590">
<rect width="20" height="20" fill="white"/>
</clipPath>
</defs>
</svg>
