<svg width="20" height="20" viewBox="0 0 20 20" fill="none" xmlns="http://www.w3.org/2000/svg">
<g opacity="0.7">
<path d="M17.6938 15.7844C17.56 15.6831 17.4044 15.6147 17.2393 15.5849C17.0742 15.555 16.9045 15.5645 16.7438 15.6125L12.4563 16.875H10.0812L8.39375 15.9375H11.5625C11.6454 15.9375 11.7249 15.9046 11.7835 15.846C11.8421 15.7874 11.875 15.7079 11.875 15.625V14.6875C11.8744 14.6047 11.8419 14.5252 11.7844 14.4656L11.1594 13.8406C11.1155 13.7977 11.0602 13.7684 11 13.7563L6.3125 12.8188C6.29185 12.8151 6.27096 12.813 6.25 12.8125H4.375C4.33538 12.8119 4.29604 12.8193 4.25938 12.8344L3.125 13.2875V12.8125C3.12521 12.7381 3.0989 12.6661 3.05079 12.6094C3.00267 12.5527 2.93591 12.515 2.8625 12.5031L0.9875 12.1906C0.942629 12.1843 0.896925 12.1874 0.85333 12.1998C0.809735 12.2122 0.769215 12.2335 0.734375 12.2625C0.700248 12.292 0.672831 12.3285 0.653965 12.3694C0.635099 12.4104 0.625223 12.4549 0.625 12.5V18.75C0.625 18.8329 0.657924 18.9124 0.716529 18.971C0.775134 19.0296 0.85462 19.0625 0.9375 19.0625C0.954228 19.063 0.970967 19.062 0.9875 19.0594L2.8625 18.7469C2.93591 18.735 3.00267 18.6973 3.05079 18.6406C3.0989 18.5839 3.12521 18.5119 3.125 18.4375V18.125H4.0125L7.7125 19.3594C7.74496 19.3692 7.77861 19.3744 7.8125 19.375H12.5C12.5352 19.3751 12.5702 19.3688 12.6031 19.3563L17.4062 17.6625C17.6163 17.5883 17.7983 17.4508 17.927 17.2689C18.0557 17.087 18.1249 16.8697 18.125 16.6469C18.126 16.4793 18.0874 16.3139 18.0125 16.1641C17.9376 16.0142 17.8284 15.8841 17.6938 15.7844ZM2.5 18.1719L1.25 18.3813V12.8688L2.5 13.0781V18.1719ZM17.2 17.0719L12.4469 18.75H7.8625L4.1625 17.5156C4.13004 17.5059 4.09639 17.5006 4.0625 17.5H3.125V13.9625L4.43437 13.4375H6.21875L10.7844 14.35L11.25 14.8156V15.3125H7.1875C7.11858 15.3127 7.05165 15.3357 6.99715 15.3779C6.94265 15.4201 6.90363 15.4791 6.88616 15.5458C6.86869 15.6125 6.87375 15.6831 6.90055 15.7466C6.92736 15.8101 6.97441 15.8629 7.03438 15.8969L9.84688 17.4594C9.89328 17.4866 9.94621 17.5006 10 17.5H12.5C12.5297 17.5007 12.5592 17.4965 12.5875 17.4875L16.9219 16.2125C16.989 16.1921 17.06 16.188 17.129 16.2005C17.198 16.213 17.2631 16.2418 17.3187 16.2844C17.3842 16.3333 17.4351 16.3991 17.4662 16.4747C17.4972 16.5503 17.5072 16.6329 17.495 16.7137C17.4828 16.7945 17.4489 16.8705 17.397 16.9335C17.345 16.9966 17.277 17.0444 17.2 17.0719Z" fill="black"/>
<path d="M10 12.5C12.7569 12.5 15 9.55594 15 5.9375V2.1875C15 2.11867 14.9773 2.05177 14.9353 1.99718C14.8934 1.9426 14.8346 1.90338 14.7681 1.88563L10.0806 0.635625C10.0278 0.621519 9.9722 0.621519 9.91938 0.635625L5.23188 1.88563C5.16538 1.90338 5.1066 1.9426 5.06467 1.99718C5.02274 2.05177 5.00001 2.11867 5 2.1875V5.9375C5 9.55594 7.24313 12.5 10 12.5ZM5.625 2.42781L10 1.26094L14.375 2.42781V5.9375C14.375 9.21156 12.4125 11.875 10 11.875C7.5875 11.875 5.625 9.21156 5.625 5.9375V2.42781Z" fill="black"/>
<path d="M8.75 7.8125V8.75C8.75 8.91576 8.81585 9.07473 8.93306 9.19194C9.05027 9.30915 9.20924 9.375 9.375 9.375H10.625C10.7908 9.375 10.9497 9.30915 11.0669 9.19194C11.1842 9.07473 11.25 8.91576 11.25 8.75V7.8125H12.1875C12.3533 7.8125 12.5122 7.74665 12.6294 7.62944C12.7467 7.51223 12.8125 7.35326 12.8125 7.1875V5.9375C12.8125 5.77174 12.7467 5.61277 12.6294 5.49556C12.5122 5.37835 12.3533 5.3125 12.1875 5.3125H11.25V4.375C11.25 4.20924 11.1842 4.05027 11.0669 3.93306C10.9497 3.81585 10.7908 3.75 10.625 3.75H9.375C9.20924 3.75 9.05027 3.81585 8.93306 3.93306C8.81585 4.05027 8.75 4.20924 8.75 4.375V5.3125H7.8125C7.64674 5.3125 7.48777 5.37835 7.37056 5.49556C7.25335 5.61277 7.1875 5.77174 7.1875 5.9375V7.1875C7.1875 7.35326 7.25335 7.51223 7.37056 7.62944C7.48777 7.74665 7.64674 7.8125 7.8125 7.8125H8.75ZM7.8125 5.9375H8.75C8.91576 5.9375 9.07473 5.87165 9.19194 5.75444C9.30915 5.63723 9.375 5.47826 9.375 5.3125V4.375H10.625V5.3125C10.625 5.47826 10.6908 5.63723 10.8081 5.75444C10.9253 5.87165 11.0842 5.9375 11.25 5.9375H12.1875V7.1875H11.25C11.0842 7.1875 10.9253 7.25335 10.8081 7.37056C10.6908 7.48777 10.625 7.64674 10.625 7.8125V8.75H9.375V7.8125C9.375 7.64674 9.30915 7.48777 9.19194 7.37056C9.07473 7.25335 8.91576 7.1875 8.75 7.1875H7.8125V5.9375Z" fill="black"/>
<path d="M16.25 2.5H16.875V1.875H17.5V1.25H16.875V0.625H16.25V1.25H15.625V1.875H16.25V2.5Z" fill="black"/>
<path d="M19.375 3.125H18.75V2.5H18.125V3.125H17.5V3.75H18.125V4.375H18.75V3.75H19.375V3.125Z" fill="black"/>
<path d="M15 10.3125V10.9375H14.375V11.5625H15V12.1875H15.625V11.5625H16.25V10.9375H15.625V10.3125H15Z" fill="black"/>
<path d="M17.5 8.4375H16.875V9.0625H16.25V9.6875H16.875V10.3125H17.5V9.6875H18.125V9.0625H17.5V8.4375Z" fill="black"/>
<path d="M3.125 2.5H3.75V1.875H4.375V1.25H3.75V0.625H3.125V1.25H2.5V1.875H3.125V2.5Z" fill="black"/>
<path d="M1.25 4.375H1.875V3.75H2.5V3.125H1.875V2.5H1.25V3.125H0.625V3.75H1.25V4.375Z" fill="black"/>
<path d="M4.375 10.3125V10.9375H3.75V11.5625H4.375V12.1875H5V11.5625H5.625V10.9375H5V10.3125H4.375Z" fill="black"/>
<path d="M3.125 10.3125V9.6875H3.75V9.0625H3.125V8.4375H2.5V9.0625H1.875V9.6875H2.5V10.3125H3.125Z" fill="black"/>
</g>
</svg>
