<svg width="20" height="20" viewBox="0 0 20 20" fill="none" xmlns="http://www.w3.org/2000/svg">
<g opacity="0.7" clip-path="url(#clip0_4486_30611)">
<path d="M18.6876 9.00033H18.0211V3.66711C18.0211 3.48287 17.8718 3.3338 17.6877 3.3338H15.6687L15.0059 1.23378C14.978 1.14613 14.9155 1.07394 14.8332 1.03392C14.7504 0.993812 14.6549 0.989884 14.569 1.02255L11.8545 2.05706L10.6353 0.154156C10.5873 0.079206 10.5114 0.0263985 10.4242 0.00793258C10.3373 -0.0116196 10.246 0.00534234 10.1721 0.054724L5.16746 3.3338H2.35471C1.06677 3.33522 0.0230719 4.37909 0.0214844 5.66702V17.6667C0.0230719 18.9546 1.06677 19.9985 2.35471 20H17.6877C17.8718 20 18.0211 19.8507 18.0211 19.6666V15.6667H18.6876C19.4241 15.6667 20.021 15.0698 20.021 14.3335V10.3336C20.021 9.59709 19.4241 9.00033 18.6876 9.00033ZM18.6876 9.66694C19.0558 9.66694 19.3543 9.96523 19.3543 10.3336C19.3543 10.7018 19.0558 11.0002 18.6876 11.0002H18.0211V9.66694H18.6876ZM17.3543 4.0005V7.33363H16.9321L15.8795 4.0005H17.3543ZM16.2332 7.33363H15.2616L14.3374 4.56166C14.2921 4.42555 14.1647 4.33355 14.0212 4.33363C13.6826 4.33472 13.3576 4.20019 13.1188 3.96014L12.9234 3.7647C12.8315 3.67271 12.6943 3.64254 12.5721 3.68766L2.71016 7.33363H2.35471C1.91027 7.33355 1.4843 7.15558 1.17222 6.83923L14.4766 1.77281L16.2332 7.33363ZM14.5589 7.33363H4.63212L12.6033 4.38694L12.6474 4.4314C12.9511 4.73679 13.3485 4.93181 13.7758 4.98487L14.5589 7.33363ZM10.2546 0.797455L11.2168 2.30038L3.44253 5.26102L10.2546 0.797455ZM2.35471 4.0005H4.14983L0.785272 6.20487C0.723189 6.03233 0.690268 5.85043 0.688179 5.66702C0.689349 4.74707 1.43484 4.00141 2.35471 4.0005ZM17.3543 19.3332H2.35471C1.43484 19.3321 0.689349 18.5866 0.688179 17.6667V7.30029C0.691355 7.30322 0.69478 7.30598 0.697788 7.30932C0.723858 7.33531 0.751431 7.3592 0.778587 7.38393C0.805492 7.40858 0.834486 7.43683 0.864149 7.46156C0.893895 7.48629 0.922555 7.50618 0.951799 7.52824C0.981128 7.55029 1.01254 7.57553 1.04446 7.59775C1.07647 7.61956 1.10746 7.63653 1.13888 7.65599C1.1703 7.67538 1.20372 7.69727 1.23881 7.71599C1.27391 7.73454 1.30716 7.74924 1.34151 7.76629C1.37585 7.78317 1.40827 7.79963 1.44353 7.81559C1.47887 7.83154 1.51931 7.84391 1.55716 7.85753C1.59518 7.87123 1.62384 7.88427 1.65894 7.8948C1.7008 7.90825 1.744 7.91769 1.78703 7.92822C1.82045 7.93616 1.85086 7.94635 1.88345 7.95295C1.9325 7.96323 1.98347 7.96916 2.03318 7.97626C2.06109 7.98002 2.08825 7.98587 2.11657 7.98888C2.19562 7.99674 2.27516 8.0005 2.35471 8.00041H2.78828L2.79304 8.01311L2.82872 8.00041H17.3543V11.0002H13.6878C12.3993 11.0002 11.3545 12.0448 11.3545 13.3335C11.3545 14.6221 12.3993 15.6667 13.6878 15.6667H17.3543V19.3332ZM19.3543 14.3335C19.3543 14.7017 19.0558 15.0001 18.6876 15.0001H13.6878C12.7674 15.0001 12.0212 14.2539 12.0212 13.3335C12.0212 12.4129 12.7674 11.6669 13.6878 11.6669H18.6876C18.7682 11.6661 18.848 11.6579 18.9271 11.6425C18.946 11.6393 18.9648 11.6355 18.9834 11.631C19.0588 11.6147 19.1326 11.5917 19.204 11.5626L19.2153 11.5571C19.2631 11.5369 19.3094 11.5135 19.3543 11.4879V14.3335Z" fill="black"/>
<path d="M7.21216 9.00035H8.54555V9.66696H7.21216V9.00035Z" fill="black"/>
<path d="M4.54541 9.00035H5.87862V9.66696H4.54541V9.00035Z" fill="black"/>
<path d="M15.2117 9.00035H16.3542V9.66696H15.2117V9.00035Z" fill="black"/>
<path d="M12.5454 9.00035H13.8786V9.66696H12.5454V9.00035Z" fill="black"/>
<path d="M1.96142 8.95363L1.80542 9.60027C1.9854 9.6438 2.16972 9.66628 2.35472 9.66695H3.21209V9.00034H2.35472C2.22237 9 2.09035 8.98438 1.96142 8.95363Z" fill="black"/>
<path d="M9.87866 9.00035H11.212V9.66696H9.87866V9.00035Z" fill="black"/>
<path d="M1.96142 17.62L1.80542 18.2665C1.9854 18.3101 2.16972 18.3327 2.35472 18.3334H3.21209V17.6667H2.35472C2.22237 17.6663 2.09035 17.6509 1.96142 17.62Z" fill="black"/>
<path d="M15.2117 17.6667H16.3542V18.3334H15.2117V17.6667Z" fill="black"/>
<path d="M7.21216 17.6667H8.54555V18.3334H7.21216V17.6667Z" fill="black"/>
<path d="M12.5454 17.6667H13.8786V18.3334H12.5454V17.6667Z" fill="black"/>
<path d="M4.54541 17.6667H5.87862V18.3334H4.54541V17.6667Z" fill="black"/>
<path d="M9.87866 17.6667H11.212V18.3334H9.87866V17.6667Z" fill="black"/>
<path d="M13.6877 12.3335C13.1355 12.3335 12.6877 12.7812 12.6877 13.3335C12.6877 13.8856 13.1355 14.3335 13.6877 14.3335C14.24 14.3335 14.6877 13.8856 14.6877 13.3335C14.6877 12.7812 14.24 12.3335 13.6877 12.3335ZM13.6877 13.6668C13.5038 13.6668 13.3544 13.5175 13.3544 13.3335C13.3544 13.1493 13.5038 13.0002 13.6877 13.0002C13.8718 13.0002 14.0211 13.1493 14.0211 13.3335C14.0211 13.5175 13.8718 13.6668 13.6877 13.6668Z" fill="black"/>
</g>
<defs>
<clipPath id="clip0_4486_30611">
<rect width="20" height="20" fill="white"/>
</clipPath>
</defs>
</svg>
