<svg width="22" height="30" viewBox="0 0 22 30" fill="none" xmlns="http://www.w3.org/2000/svg">
<path d="M7.40019 16.8C7.40019 17.7941 6.59431 18.6 5.60019 18.6C4.60608 18.6 3.80019 17.7941 3.80019 16.8C3.80019 15.8059 4.60608 15 5.60019 15C6.59431 15 7.40019 15.8059 7.40019 16.8ZM7.40019 22.2C7.40019 23.1941 6.59431 24 5.60019 24C4.60608 24 3.80019 23.1941 3.80019 22.2C3.80019 21.2059 4.60608 20.4 5.60019 20.4C6.59431 20.4 7.40019 21.2059 7.40019 22.2ZM16.4002 18.6C17.3943 18.6 18.2002 17.7941 18.2002 16.8C18.2002 15.8059 17.3943 15 16.4002 15C15.4061 15 14.6002 15.8059 14.6002 16.8C14.6002 17.7941 15.4061 18.6 16.4002 18.6ZM18.2002 22.2C18.2002 23.1941 17.3943 24 16.4002 24C15.4061 24 14.6002 23.1941 14.6002 22.2C14.6002 21.2059 15.4061 20.4 16.4002 20.4C17.3943 20.4 18.2002 21.2059 18.2002 22.2ZM11.0002 18.6C11.9943 18.6 12.8002 17.7941 12.8002 16.8C12.8002 15.8059 11.9943 15 11.0002 15C10.0061 15 9.20019 15.8059 9.20019 16.8C9.20019 17.7941 10.0061 18.6 11.0002 18.6ZM12.8002 22.2C12.8002 23.1941 11.9943 24 11.0002 24C10.0061 24 9.20019 23.1941 9.20019 22.2C9.20019 21.2059 10.0061 20.4 11.0002 20.4C11.9943 20.4 12.8002 21.2059 12.8002 22.2ZM6.50019 4.19998C5.00903 4.19998 3.80019 5.40881 3.80019 6.89998V8.69998C3.80019 10.1911 5.00903 11.4 6.50019 11.4H15.5002C16.9914 11.4 18.2002 10.1911 18.2002 8.69998V6.89998C18.2002 5.40881 16.9914 4.19998 15.5002 4.19998H6.50019ZM5.60019 6.89998C5.60019 6.40292 6.00314 5.99998 6.50019 5.99998H15.5002C15.9972 5.99998 16.4002 6.40292 16.4002 6.89998V8.69998C16.4002 9.19703 15.9972 9.59998 15.5002 9.59998H6.50019C6.00314 9.59998 5.60019 9.19703 5.60019 8.69998V6.89998ZM21.8002 24.9C21.8002 27.3853 19.7855 29.4 17.3002 29.4H4.70019C2.21491 29.4 0.200195 27.3853 0.200195 24.9V5.09998C0.200195 2.61469 2.21491 0.599976 4.70019 0.599976H17.3002C19.7855 0.599976 21.8002 2.61469 21.8002 5.09998V24.9ZM20.0002 5.09998C20.0002 3.60881 18.7914 2.39998 17.3002 2.39998H4.70019C3.20903 2.39998 2.0002 3.60881 2.0002 5.09998V24.9C2.0002 26.3911 3.20903 27.6 4.70019 27.6H17.3002C18.7914 27.6 20.0002 26.3911 20.0002 24.9V5.09998Z" fill="#FAFAFA"/>
</svg>
