<svg width="25" height="25" viewBox="0 0 25 25" fill="none" xmlns="http://www.w3.org/2000/svg">
<path fill-rule="evenodd" clip-rule="evenodd" d="M3.08613 3.90414C3.08846 3.90414 3.03013 3.96481 2.95663 4.03714C2.6743 4.31131 2.0898 4.88181 2.08396 6.07531C2.07463 7.74481 3.17246 10.8446 8.45863 16.1296C13.7203 21.389 16.8155 22.4996 18.4885 22.4996H18.513C19.7065 22.4938 20.2758 21.9081 20.5511 21.627C20.6351 21.5406 20.7028 21.4776 20.7506 21.438C21.9126 20.269 22.5076 19.3986 22.5018 18.841C22.4936 18.2716 21.7855 17.5985 20.8066 16.6675C20.4951 16.3711 20.1568 16.0491 19.7998 15.6921C18.8746 14.7693 18.4161 14.9268 17.4081 15.2815C16.014 15.7703 14.1006 16.4353 11.128 13.4615C8.15063 10.4865 8.8168 8.57548 9.30446 7.18131C9.6568 6.17331 9.8178 5.71364 8.89146 4.78731C8.52863 4.42564 8.20313 4.08264 7.9033 3.76764C6.97813 2.79464 6.3108 2.09114 5.74496 2.08298H5.73563C5.1768 2.08298 4.3088 2.68031 3.0803 3.90881C3.0838 3.90531 3.08496 3.90414 3.08613 3.90414ZM18.4897 24.2497C15.5824 24.2497 11.7919 21.9351 7.22208 17.3676C2.63475 12.7814 0.316583 8.97923 0.334083 6.06607C0.344583 4.14107 1.35375 3.15523 1.73292 2.7854C1.75275 2.7609 1.82042 2.6944 1.84375 2.67106C3.51675 0.996898 4.64492 0.320231 5.76725 0.333065C7.07042 0.350565 7.99792 1.3259 9.17158 2.5614C9.46208 2.86706 9.77708 3.19956 10.1283 3.54956C11.8316 5.2529 11.3463 6.6424 10.9566 7.75773C10.5319 8.97457 10.1644 10.0246 12.3647 12.2249C14.5674 14.4252 15.6174 14.0577 16.8296 13.6296C17.9461 13.2399 19.3321 12.7522 21.0378 14.4556C21.3831 14.8009 21.7109 15.1124 22.0131 15.4006C23.2544 16.5801 24.2344 17.5122 24.2508 18.8189C24.2648 19.9331 23.5881 21.0682 21.9174 22.7401L21.1778 22.2384L21.8031 22.8497C21.4333 23.2289 20.4486 24.2392 18.5224 24.2497H18.4897Z" fill="#A13737"/>
</svg>
