<svg width="28" height="28" viewBox="0 0 28 28" fill="none" xmlns="http://www.w3.org/2000/svg">
<g clip-path="url(#clip0_4836_32753)">
<path d="M13.9993 1.09375C13.6973 1.09375 13.4524 1.33859 13.4524 1.64062V4.89415C13.4524 5.19619 13.6973 5.44102 13.9993 5.44102C14.3013 5.44102 14.5461 5.19619 14.5461 4.89415V1.64062C14.5461 1.33859 14.3013 1.09375 13.9993 1.09375Z" fill="#507DB1"/>
<path d="M10.9005 5.76323L9.59206 4.45592C9.37828 4.24242 9.03211 4.24259 8.81861 4.45625C8.60517 4.66991 8.60533 5.01614 8.81894 5.22964L10.1274 6.53694C10.2343 6.64364 10.3741 6.69696 10.514 6.69696C10.654 6.69696 10.794 6.64348 10.9008 6.53662C11.1143 6.32295 11.1141 5.97673 10.9005 5.76323Z" fill="#507DB1"/>
<path d="M19.181 4.45692C18.9673 4.24337 18.621 4.24359 18.4075 4.4572L17.0164 5.84938C16.803 6.06304 16.8031 6.40927 17.0168 6.62277C17.1236 6.72952 17.2635 6.78284 17.4033 6.78284C17.5434 6.78284 17.6834 6.72935 17.7902 6.6225L19.1813 5.23032C19.3947 5.01665 19.3946 4.67042 19.181 4.45692Z" fill="#507DB1"/>
<path d="M24.418 15.5311H23.9766C24.3368 15.0616 24.5516 14.475 24.5516 13.8389V13.0671C24.5516 11.5309 23.3018 10.2811 21.7656 10.2811C20.2295 10.2811 18.9797 11.5309 18.9797 13.0671V13.667L14.8655 9.55279C14.6372 9.32453 14.3014 9.25124 14.0001 9.36007C13.6988 9.25124 13.3629 9.32453 13.1346 9.55285L9.02043 13.667V13.0671C9.02032 11.5309 7.77055 10.2811 6.23438 10.2811C4.6982 10.2811 3.44843 11.5309 3.44843 13.0671V13.8389C3.44843 14.475 3.66319 15.0616 4.02336 15.5311H3.58203C1.60688 15.5311 0 17.138 0 19.1132V26.3592C0 26.6613 0.244891 26.9061 0.546875 26.9061H2.85742C2.91211 26.9061 2.96483 26.8979 3.01465 26.8829C3.06447 26.8979 3.11719 26.9061 3.17188 26.9061H9.29688C9.59886 26.9061 9.84375 26.6613 9.84375 26.3592V24.4999C9.84375 24.1978 9.59886 23.953 9.29688 23.953C8.99489 23.953 8.75 24.1978 8.75 24.4999V25.8124H3.71875V19.5809C3.71875 19.2789 3.47386 19.034 3.17188 19.034C2.86989 19.034 2.625 19.2789 2.625 19.5809V25.8124H1.09375V19.1132C1.09375 17.7411 2.20998 16.6249 3.58203 16.6249H7.38281C7.53331 16.6249 7.66959 16.564 7.76847 16.4657C7.76885 16.4653 7.76918 16.4651 7.76956 16.4647L13.4499 10.7844C13.4127 11.9201 13.0594 13.014 12.4225 13.9599L8.8433 19.2755C8.78254 19.3658 8.75006 19.4721 8.75006 19.5809V20.1796C8.75006 20.4816 8.99495 20.7264 9.29693 20.7264C9.59891 20.7264 9.84381 20.4816 9.84381 20.1796V19.7478L13.3298 14.5708C13.5961 14.1752 13.8194 13.7573 14.0001 13.3234C14.1807 13.7573 14.404 14.1752 14.6704 14.5708L18.1562 19.7478V26.3592C18.1562 26.6613 18.4011 26.9061 18.7031 26.9061H24.8281C24.8828 26.9061 24.9355 26.8979 24.9854 26.8829C25.0352 26.8979 25.0879 26.9061 25.1426 26.9061H27.4531C27.7551 26.9061 28 26.6613 28 26.3592V19.1132C28 17.138 26.3931 15.5311 24.418 15.5311ZM7.92657 13.8389C7.92657 14.772 7.16751 15.5311 6.23438 15.5311C5.30124 15.5311 4.54218 14.772 4.54218 13.8389V13.0671C4.54218 12.134 5.3013 11.3749 6.23438 11.3749C7.16745 11.3749 7.92657 12.134 7.92657 13.0671V13.8389ZM20.0734 13.0671C20.0734 12.134 20.8325 11.3749 21.7656 11.3749C22.6987 11.3749 23.4578 12.134 23.4578 13.0671V13.8389C23.4578 14.772 22.6988 15.5311 21.7656 15.5311C20.8325 15.5311 20.0734 14.772 20.0734 13.8389V13.0671ZM26.9062 25.8124H25.375V21.7655C25.375 21.4635 25.1301 21.2186 24.8281 21.2186C24.5261 21.2186 24.2812 21.4635 24.2812 21.7655V25.8124H19.25V19.5809C19.25 19.4721 19.2175 19.3657 19.1568 19.2755L15.5776 13.96C14.9407 13.0141 14.5874 11.9202 14.5502 10.7844L20.2305 16.4647C20.2377 16.472 20.2445 16.478 20.2511 16.4834C20.348 16.5711 20.4762 16.625 20.6172 16.625H24.418C25.79 16.625 26.9062 17.7412 26.9062 19.1133V25.8124V25.8124Z" fill="#507DB1"/>
<path d="M25.2147 19.1944C25.113 19.0927 24.972 19.0342 24.8281 19.0342C24.6843 19.0342 24.5432 19.0927 24.4415 19.1944C24.3398 19.2961 24.2812 19.4372 24.2812 19.5811C24.2812 19.7249 24.3397 19.866 24.4415 19.9677C24.5432 20.0694 24.6843 20.1279 24.8281 20.1279C24.972 20.1279 25.113 20.0694 25.2147 19.9677C25.3164 19.866 25.375 19.7249 25.375 19.5811C25.375 19.4372 25.3165 19.2967 25.2147 19.1944Z" fill="#507DB1"/>
<path d="M9.68346 22.0899C9.5818 21.9882 9.4407 21.9297 9.29688 21.9297C9.15305 21.9297 9.01195 21.9882 8.91023 22.0899C8.80852 22.1916 8.75 22.3327 8.75 22.4766C8.75 22.6204 8.80846 22.7615 8.91023 22.8632C9.01201 22.9649 9.15305 23.0234 9.29688 23.0234C9.4407 23.0234 9.5818 22.9649 9.68346 22.8632C9.78518 22.7615 9.84375 22.6204 9.84375 22.4766C9.84375 22.3327 9.78523 22.1916 9.68346 22.0899Z" fill="#507DB1"/>
</g>
<defs>
<clipPath id="clip0_4836_32753">
<rect width="28" height="28" fill="white"/>
</clipPath>
</defs>
</svg>
