<svg width="28" height="28" viewBox="0 0 28 28" fill="none" xmlns="http://www.w3.org/2000/svg">
<g clip-path="url(#clip0_4836_32721)">
<path d="M27.5401 13.3529C27.3247 13.1299 27.0583 12.9759 26.7663 12.902C26.9396 12.6266 27.0265 12.3058 27.0146 11.9719C26.9836 11.1001 26.2348 10.3906 25.3455 10.3906H22.097L22.0938 5.52344C22.0938 4.46814 21.2352 3.60937 20.1797 3.60937C19.1242 3.60937 18.2656 4.46814 18.2656 5.52344V6.81158C18.2656 7.14206 18.1958 7.461 18.0672 7.75217C15.6586 7.6618 13.7266 5.67511 13.7266 3.24472V2.65234C13.7266 2.2753 13.42 1.96875 13.043 1.96875H5.98828C5.61124 1.96875 5.30469 2.2753 5.30469 2.65234V3.11719C5.30469 5.60504 3.28082 7.62891 0.792969 7.62891H0.683594C0.306549 7.62891 0 7.93545 0 8.3125V16.5156C0 21.7626 4.26862 26.0312 9.51563 26.0312C13.2376 26.0312 16.6002 23.8719 18.1554 20.5078H23.8732C24.2464 20.5078 24.6113 20.354 24.8743 20.0861C25.1332 19.8223 25.2722 19.4773 25.2654 19.1146C25.262 18.93 25.2212 18.754 25.1503 18.5937H25.3455C26.2348 18.5937 26.9836 17.8843 27.0146 17.0125C27.0265 16.6758 26.9383 16.3526 26.7621 16.0758C27.4499 15.8908 27.9733 15.2775 27.9989 14.5516C28.015 14.1019 27.852 13.6761 27.5401 13.3529V13.3529ZM9.51563 25.2109C4.72107 25.2109 0.820313 21.3102 0.820313 16.5156V8.44922C3.7478 8.43426 6.125 6.0481 6.125 3.11719V2.78906H12.9063V3.24472C12.9063 5.93765 14.9128 8.17023 17.5092 8.52676C17.4107 8.61648 17.3043 8.69916 17.1892 8.77243L14.9485 10.1981C14.7507 10.3242 14.5223 10.3906 14.288 10.3906H13.7834C13.6304 9.88498 13.1605 9.51562 12.6055 9.51562H10.3086C9.7739 9.51562 9.31802 9.85849 9.14862 10.3359H7.13672C6.54861 10.3359 6.07031 10.8145 6.07031 11.4023V18.457C6.07031 19.0451 6.54861 19.5234 7.13672 19.5234H9.07813V23.5586C5.39334 23.3454 2.46094 20.2803 2.46094 16.543V9.74698C5.2782 9.5419 7.52338 7.24246 7.64215 4.40234H9.07813V8.01172C9.07813 8.23837 9.26184 8.42187 9.48828 8.42187C9.71472 8.42187 9.89844 8.23837 9.89844 8.01172V3.99219C9.89844 3.76553 9.71472 3.58203 9.48828 3.58203H7.23691C7.01047 3.58203 6.82675 3.76553 6.82675 3.99219V4.16544C6.82675 6.79898 4.68433 8.94141 2.05078 8.94141C1.82434 8.94141 1.64063 9.12491 1.64063 9.35156V16.543C1.64063 20.8701 5.16113 24.3906 9.48828 24.3906C9.71472 24.3906 9.89844 24.2071 9.89844 23.9805V20.3017C9.99435 20.3284 10.095 20.3437 10.1992 20.3437H12.6055C13.0075 20.3437 13.3651 20.15 13.5896 19.8509L14.0271 20.0987C14.4992 20.3664 15.0354 20.5078 15.5778 20.5078H17.2424C15.7564 23.3842 12.7881 25.2109 9.51563 25.2109V25.2109ZM9.07813 18.7031H7.13672C7.00107 18.7031 6.89063 18.5927 6.89063 18.457V11.4023C6.89063 11.2667 7.00107 11.1562 7.13672 11.1562H9.07813V18.7031ZM26.3299 15.3125H23.1328C22.9064 15.3125 22.7227 15.496 22.7227 15.7227C22.7227 15.9493 22.9064 16.1328 23.1328 16.1328H25.375C25.5995 16.1328 25.8093 16.2219 25.9655 16.3836C26.1214 16.5451 26.2028 16.7583 26.1947 16.9835C26.1793 17.419 25.7982 17.7734 25.3455 17.7734H23.8984C23.8893 17.7734 23.8801 17.7743 23.8711 17.7747C23.8621 17.7743 23.8529 17.7734 23.8438 17.7734H23.1328C22.9064 17.7734 22.7227 17.9569 22.7227 18.1836C22.7227 18.4102 22.9064 18.5937 23.1328 18.5937H23.8438C23.8529 18.5937 23.8621 18.5929 23.8711 18.5925C23.8801 18.5929 23.8893 18.5937 23.8984 18.5937C24.1943 18.5937 24.4398 18.8343 24.4453 19.1302C24.4479 19.2707 24.3923 19.4062 24.2889 19.5117C24.1791 19.6234 24.0277 19.6875 23.8734 19.6875H15.5778C15.1768 19.6875 14.7806 19.583 14.4317 19.3852L13.8359 19.0475V18.1197C13.8359 17.8933 13.6522 17.7096 13.4258 17.7096C13.1993 17.7096 13.0156 17.8933 13.0156 18.1197V19.1133C13.0156 19.3395 12.8317 19.5234 12.6055 19.5234H10.1992C10.0334 19.5234 9.89844 19.3884 9.89844 19.2227V10.7461C9.89844 10.5199 10.0824 10.3359 10.3086 10.3359H12.6055C12.8317 10.3359 13.0156 10.5199 13.0156 10.7461V16.2057C13.0156 16.4323 13.1993 16.6158 13.4258 16.6158C13.6522 16.6158 13.8359 16.4323 13.8359 16.2057V11.2109H14.288C14.6785 11.2109 15.0594 11.1001 15.3888 10.8903L17.6297 9.46435C18.5416 8.88415 19.0859 7.8923 19.0859 6.81158V5.52344C19.0859 4.92038 19.5766 4.42969 20.1797 4.42969C20.7827 4.42969 21.2734 4.92038 21.2734 5.52365L21.2766 10.5278C21.2769 10.9044 21.5836 11.2109 21.9602 11.2109H25.3455C25.7982 11.2109 26.1793 11.5653 26.1947 12.0009C26.2028 12.2261 26.1212 12.4393 25.9655 12.6008C25.8093 12.7625 25.5995 12.8516 25.375 12.8516H23.1328C22.9064 12.8516 22.7227 13.0351 22.7227 13.2617C22.7227 13.4884 22.9064 13.6719 23.1328 13.6719H26.3594C26.5839 13.6719 26.7937 13.761 26.9498 13.9227C27.1058 14.0842 27.1872 14.2974 27.179 14.5225C27.1637 14.9581 26.7826 15.3125 26.3299 15.3125V15.3125Z" fill="#507DB1"/>
</g>
<defs>
<clipPath id="clip0_4836_32721">
<rect width="28" height="28" fill="white"/>
</clipPath>
</defs>
</svg>
