<svg width="28" height="28" viewBox="0 0 28 28" fill="none" xmlns="http://www.w3.org/2000/svg">
<path d="M25.0499 16.6565C24.7179 16.3244 24.311 16.0944 23.8673 15.9815C24.0714 15.1366 23.8443 14.2078 23.186 13.5495C22.8475 13.2109 22.4373 12.9869 22.0039 12.8764C22.1965 12.0803 22.0183 11.1392 21.3216 10.4426C21.0879 10.2089 20.8199 10.0302 20.5338 9.90518L23.1864 7.25297C24.1923 6.2458 24.1942 4.61548 23.186 3.60743C22.1791 2.60048 20.5486 2.59873 19.5401 3.60743L11.2659 11.8816L10.7821 9.78468C10.5043 8.58006 9.59329 7.61998 8.40475 7.27917C7.21648 6.93825 5.93523 7.26971 5.06113 8.14424C5.06102 8.14435 5.06091 8.14446 5.06075 8.14457C4.90689 8.29859 4.82031 8.50775 4.82052 8.7255L4.83075 18.9306L2.43507 21.3263C2.11466 21.6467 2.11466 22.1662 2.43507 22.4866L7.7077 27.7592C7.86151 27.9131 8.07023 27.9996 8.28781 27.9996H15.9213C16.8443 27.9996 17.7123 27.6399 18.3653 26.9869L25.0499 20.3023C26.0444 19.3087 26.0692 17.6744 25.0499 16.6565V16.6565ZM20.7004 14.7097C21.0669 14.3433 21.6598 14.3438 22.0257 14.7097C22.3911 15.0751 22.3911 15.6697 22.0257 16.0351L20.1614 17.8994C19.7943 18.2665 19.2013 18.2647 18.8362 17.8996C18.4708 17.534 18.4707 16.9393 18.836 16.574L20.7004 14.7097ZM17.6758 15.4138C17.3104 15.7792 16.7159 15.779 16.3504 15.4138C15.985 15.0484 15.985 14.4539 16.3504 14.0885L18.836 11.6028C19.2017 11.2372 19.7963 11.2377 20.1614 11.6028C20.5279 11.9693 20.5273 12.5623 20.1614 12.9282C20.1613 12.9282 20.1611 12.9284 20.1612 12.9283C20.1614 12.9282 17.6758 15.4138 17.6758 15.4138V15.4138ZM17.2052 25.8265C16.867 26.1647 16.3991 26.3586 15.9214 26.3586H8.62769L4.17549 21.9064L6.23168 19.8502C6.38576 19.6961 6.47218 19.4871 6.47201 19.2692L6.46184 9.10328C6.89175 8.80431 7.43887 8.70909 7.95236 8.85644C8.56774 9.03289 9.03939 9.52986 9.18318 10.1534L10.0001 13.6929C10.0352 13.8451 10.1125 13.9807 10.219 14.0875C10.2191 14.0878 10.8407 14.7097 10.8407 14.7097C12.234 16.103 12.234 18.37 10.8407 19.7634C10.5203 20.0838 10.5203 20.6032 10.8407 20.9236C11.1611 21.2441 11.6807 21.244 12.001 20.9236C14.034 18.8906 14.034 15.5826 12.001 13.5495L11.9598 13.5083L20.7005 4.76764C21.0754 4.39259 21.669 4.41086 22.0257 4.7677C22.3915 5.13345 22.3918 5.72652 22.0257 6.09304L15.1902 12.9282C14.185 13.9333 14.185 15.5689 15.1903 16.5743C15.6704 17.054 16.2941 17.3041 16.9242 17.3257C16.9458 17.9558 17.196 18.5796 17.6758 19.0597C18.1555 19.5395 18.7788 19.7897 19.4088 19.8114C19.4309 20.4666 19.6957 21.0792 20.161 21.5446C20.3915 21.7753 20.6583 21.9563 20.9483 22.0836L17.2052 25.8265ZM23.89 19.1417C23.8898 19.1418 23.8897 19.142 23.8896 19.1421L22.6466 20.385C22.2854 20.7467 21.6914 20.7549 21.3216 20.3847C20.9529 20.016 20.9586 19.4228 21.3219 19.0595L22.5647 17.8167C22.9335 17.448 23.5265 17.4537 23.8899 17.8171C24.2609 18.1875 24.2504 18.7817 23.89 19.1417V19.1417Z" fill="#507DB1"/>
<path d="M10.9242 5.15164C11.3773 5.15164 11.7446 4.7843 11.7446 4.3312V0.816111C11.7013 -0.272447 10.1467 -0.271627 10.1038 0.816111V4.33126C10.1038 4.78436 10.4711 5.15164 10.9242 5.15164V5.15164Z" fill="#507DB1"/>
<path d="M6.82901 4.91115C7.14942 5.23162 7.66898 5.23151 7.98928 4.91115C8.30969 4.59074 8.30969 4.0713 7.98928 3.75089L7.11053 2.87214C6.79018 2.55173 6.27068 2.55173 5.95027 2.87214C5.62986 3.19255 5.62986 3.712 5.95027 4.03241L6.82901 4.91115Z" fill="#507DB1"/>
<path d="M15.0195 4.91115L15.8983 4.03241C16.2187 3.712 16.2187 3.19255 15.8983 2.87214C15.5779 2.55173 15.0584 2.55173 14.738 2.87214L13.8593 3.75089C13.5389 4.0713 13.5389 4.59074 13.8593 4.91115C14.1797 5.23162 14.6992 5.23151 15.0195 4.91115V4.91115Z" fill="#507DB1"/>
</svg>
