<svg width="28" height="28" viewBox="0 0 28 28" fill="none" xmlns="http://www.w3.org/2000/svg">
<path d="M14.7022 0C7.47208 0 1.57721 5.89465 1.57721 13.125C1.57721 13.5394 1.57721 13.908 1.62331 14.3224L2.54436 14.2302C2.49826 13.8619 2.49826 13.4933 2.49826 13.125C2.49826 6.40127 7.97848 0.921053 14.7022 0.921053C21.4259 0.921053 26.9062 6.40127 26.9062 13.125C26.9062 19.7104 21.7023 25.0987 15.1627 25.3289L16.176 24.3157L15.5313 23.671L13.3667 25.8356L15.5313 27.9999L16.176 27.3552L15.0708 26.25C22.347 26.0197 28.0575 19.9868 27.8272 12.7567C27.5969 5.66438 21.7943 0 14.7022 0V0Z" fill="#507DB1"/>
<path d="M23.2221 5.52637H6.64313V13.8158H23.2221V5.52637ZM22.301 12.8948H7.56418V6.44742H22.301V12.8948Z" fill="#507DB1"/>
<path d="M14.9326 11.5133C15.9458 11.5133 16.7747 10.6845 16.7747 9.67121C16.7747 8.65796 15.9458 7.8291 14.9326 7.8291C13.9195 7.8291 13.0905 8.65796 13.0905 9.67121C13.0905 10.6845 13.9195 11.5133 14.9326 11.5133ZM14.9326 8.75016C15.4392 8.75016 15.8536 9.16459 15.8536 9.67121C15.8536 10.1778 15.4392 10.5923 14.9326 10.5923C14.4259 10.5923 14.0115 10.1778 14.0115 9.67121C14.0115 9.16459 14.4259 8.75016 14.9326 8.75016Z" fill="#507DB1"/>
<path d="M9.40616 8.29019H10.3272V7.36914H8.48511V9.21124H9.40616V8.29019Z" fill="#507DB1"/>
<path d="M10.3272 11.0519H9.40616V10.1309H8.48511V11.973H10.3272V11.0519Z" fill="#507DB1"/>
<path d="M21.3799 10.1309H20.4588V11.0519H19.5378V11.973H21.3799V10.1309Z" fill="#507DB1"/>
<path d="M20.4588 9.21124H21.3799V7.36914H19.5378V8.29019H20.4588V9.21124Z" fill="#507DB1"/>
<path d="M10.7878 9.20996H12.1694V10.131H10.7878V9.20996Z" fill="#507DB1"/>
<path d="M17.6957 9.20996H19.0773V10.131H17.6957V9.20996Z" fill="#507DB1"/>
<path d="M2.95886 19.8027H3.87992V21.1843H2.95886V19.8027Z" fill="#507DB1"/>
<path d="M23.222 18.8358C23.222 17.9147 22.4392 17.132 21.5182 17.132C21.3799 17.132 21.1957 17.132 21.0577 17.1778L15.4852 18.7897C15.4391 18.7897 15.3469 18.8358 15.3011 18.7897L14.0115 18.5594C14.8864 18.053 15.2089 16.9476 14.7484 16.0726C14.4259 15.474 13.8273 15.1055 13.1365 15.1055H7.33384C7.10357 15.1055 6.87331 15.1516 6.64305 15.2899L5.72199 15.8885V15.1977H0.195679V23.0266H5.72199V21.8753L10.2812 23.7635C10.5575 23.9016 10.9261 23.9016 11.2022 23.8096L21.9787 20.4476C22.7154 20.2635 23.222 19.6188 23.222 18.8358V18.8358ZM4.80094 22.1056H1.11673V16.1187H2.95884V18.8819H3.87989V16.1187H4.80094V22.1056ZM10.9719 22.9344C10.88 22.9805 10.7417 22.9805 10.6497 22.9344L5.72199 20.862V16.9476L7.10357 16.1648C7.14967 16.1187 7.24187 16.1187 7.33384 16.1187H13.0904C13.597 16.1187 14.0115 16.5331 14.0115 17.0398C14.0115 17.5464 13.597 17.9608 13.0904 17.9608H9.86673V18.4213L9.77476 18.8819L15.0708 19.7568C15.255 19.8029 15.4852 19.7568 15.6694 19.7107L21.2418 18.0989C21.6562 17.9608 22.0707 18.2372 22.209 18.6516C22.347 19.066 22.1168 19.4805 21.7023 19.6188L10.9719 22.9344Z" fill="#507DB1"/>
</svg>
