<svg width="24" height="24" viewBox="0 0 24 24" fill="none" xmlns="http://www.w3.org/2000/svg">
<path d="M16.1998 2.39999H7.7998C6.14295 2.39999 4.7998 3.74314 4.7998 5.39999V18.6C4.7998 20.2568 6.14295 21.6 7.7998 21.6H16.1998C17.8567 21.6 19.1998 20.2568 19.1998 18.6V5.39999C19.1998 3.74314 17.8567 2.39999 16.1998 2.39999ZM8.9998 4.79999H14.9998C15.9939 4.79999 16.7998 5.60588 16.7998 6.59999V7.79999C16.7998 8.79411 15.9939 9.59999 14.9998 9.59999H8.9998C8.00569 9.59999 7.1998 8.79411 7.1998 7.79999V6.59999C7.1998 5.60588 8.00569 4.79999 8.9998 4.79999ZM9.5998 13.2C9.5998 13.8627 9.06255 14.4 8.3998 14.4C7.73706 14.4 7.1998 13.8627 7.1998 13.2C7.1998 12.5373 7.73706 12 8.3998 12C9.06255 12 9.5998 12.5373 9.5998 13.2ZM9.5998 16.8C9.5998 17.4627 9.06255 18 8.3998 18C7.73706 18 7.1998 17.4627 7.1998 16.8C7.1998 16.1373 7.73706 15.6 8.3998 15.6C9.06255 15.6 9.5998 16.1373 9.5998 16.8ZM15.5998 14.4C14.9371 14.4 14.3998 13.8627 14.3998 13.2C14.3998 12.5373 14.9371 12 15.5998 12C16.2625 12 16.7998 12.5373 16.7998 13.2C16.7998 13.8627 16.2625 14.4 15.5998 14.4ZM16.7998 16.8C16.7998 17.4627 16.2625 18 15.5998 18C14.9371 18 14.3998 17.4627 14.3998 16.8C14.3998 16.1373 14.9371 15.6 15.5998 15.6C16.2625 15.6 16.7998 16.1373 16.7998 16.8ZM11.9998 14.4C11.3371 14.4 10.7998 13.8627 10.7998 13.2C10.7998 12.5373 11.3371 12 11.9998 12C12.6625 12 13.1998 12.5373 13.1998 13.2C13.1998 13.8627 12.6625 14.4 11.9998 14.4ZM13.1998 16.8C13.1998 17.4627 12.6625 18 11.9998 18C11.3371 18 10.7998 17.4627 10.7998 16.8C10.7998 16.1373 11.3371 15.6 11.9998 15.6C12.6625 15.6 13.1998 16.1373 13.1998 16.8Z" fill="white"/>
</svg>
